<?xml version="1.0" encoding="UTF-8" standalone="no"?>
<svg xmlns="http://www.w3.org/2000/svg" version="1.2" baseProfile="tiny" viewBox="0.00 50.00 223.00 60.00">
<path fill="#000000" d="
  M 99.55 75.10
  C 114.57 81.68 98.71 103.66 83.24 90.21
  Q 82.70 89.74 83.11 89.14
  L 86.18 84.65
  Q 86.54 84.11 87.00 84.56
  Q 90.86 88.35 96.24 88.04
  Q 98.89 87.88 99.38 85.45
  C 100.70 78.89 82.09 80.97 84.79 68.28
  C 86.70 59.34 98.49 58.17 105.33 61.74
  Q 105.68 61.93 105.51 62.28
  L 102.46 68.46
  C 102.29 68.80 101.88 68.92 101.56 68.72
  C 98.33 66.68 92.83 64.22 90.66 68.48
  Q 90.44 68.91 90.58 69.36
  C 91.39 72.15 97.00 73.98 99.55 75.10
  Z"
/>
<path fill="#000000" d="
  M 177.00 87.94
  L 177.00 82.13
  C 177.00 81.65 176.62 81.25 176.14 81.22
  L 171.26 80.97
  Q 170.61 80.93 170.68 80.28
  L 171.09 76.49
  C 171.12 76.15 171.41 75.89 171.76 75.89
  L 182.37 75.87
  Q 182.88 75.87 182.88 76.37
  L 182.82 91.37
  C 182.82 92.05 182.37 92.65 181.71 92.85
  Q 177.31 94.16 172.23 94.51
  C 157.51 95.53 153.31 79.37 159.13 68.85
  C 164.12 59.84 173.78 57.49 183.05 61.58
  Q 183.58 61.82 183.35 62.35
  L 180.80 68.26
  Q 180.56 68.83 180.01 68.52
  C 168.27 61.92 161.15 70.28 164.24 81.77
  Q 166.82 91.38 176.59 88.50
  Q 177.00 88.37 177.00 87.94
  Z"
/>
<path fill="#000000" d="
  M 195.45 67.35
  C 194.14 68.93 195.41 71.13 196.99 71.85
  Q 200.98 73.67 204.95 75.63
  C 212.65 79.43 210.66 88.07 204.78 92.22
  Q 197.24 97.55 188.26 91.12
  C 187.39 90.50 187.20 89.29 187.82 88.42
  L 190.47 84.75
  C 190.72 84.40 191.23 84.35 191.54 84.65
  Q 193.90 86.88 197.01 87.88
  C 200.01 88.84 204.48 87.78 203.52 83.76
  C 203.46 83.48 203.30 83.23 203.09 83.05
  C 198.98 79.55 193.51 79.40 190.34 75.21
  Q 188.86 73.26 188.84 70.61
  C 188.78 65.17 193.91 60.64 198.96 59.84
  Q 203.86 59.06 209.41 61.44
  Q 209.90 61.66 209.69 62.15
  L 206.98 68.34
  C 206.82 68.71 206.37 68.85 206.03 68.64
  C 203.54 67.11 197.54 64.83 195.45 67.35
  Z"
/>
<path fill="#000000" d="
  M 40.08 70.25
  Q 37.33 76.51 35.31 83.03
  C 34.53 85.55 30.99 85.18 29.00 84.91
  C 28.67 84.87 28.39 84.64 28.29 84.32
  L 23.74 70.65
  C 23.68 70.45 23.48 70.33 23.27 70.37
  C 23.07 70.40 22.92 70.57 22.92 70.78
  L 22.87 93.47
  Q 22.86 94.06 22.28 94.07
  L 17.40 94.15
  Q 16.90 94.16 16.91 93.66
  L 17.88 61.53
  C 17.89 61.21 18.13 60.94 18.45 60.89
  L 25.13 59.89
  Q 25.86 59.78 26.09 60.49
  L 31.53 77.73
  C 31.67 78.18 32.29 78.20 32.47 77.77
  Q 35.42 70.60 38.19 63.04
  C 39.17 60.36 40.59 59.34 43.36 60.30
  C 43.55 60.37 43.77 60.37 43.97 60.30
  Q 45.50 59.72 46.13 60.72
  Q 46.43 61.20 46.41 62.24
  Q 46.14 77.67 47.37 93.20
  C 47.41 93.71 47.01 94.14 46.50 94.14
  L 41.71 94.13
  C 41.07 94.13 40.56 93.59 40.59 92.95
  Q 41.19 81.61 40.29 70.29
  Q 40.25 69.85 40.08 70.25
  Z"
/>
<path fill="#000000" d="
  M 60.38 95.39
  C 60.01 99.94 60.29 104.37 55.24 106.28
  C 54.70 106.48 54.12 106.09 54.12 105.51
  L 53.57 62.40
  C 53.56 61.65 54.10 61.00 54.84 60.88
  L 59.71 60.06
  C 60.29 59.96 60.82 60.43 60.80 61.02
  Q 60.44 69.88 59.83 78.73
  C 59.58 82.45 60.28 87.59 64.74 88.28
  Q 72.40 89.47 72.36 81.75
  Q 72.32 71.72 72.04 61.71
  Q 72.03 61.19 72.53 61.10
  L 78.45 59.97
  C 78.76 59.91 79.05 60.16 79.04 60.48
  Q 78.83 69.25 78.61 77.95
  Q 78.46 84.29 76.96 87.30
  Q 72.90 95.44 61.30 94.60
  Q 60.45 94.54 60.38 95.39
  Z"
/>
<path fill="#000000" d="
  M 116.27 60.20
  Q 117.92 59.97 117.82 61.63
  Q 116.84 77.51 117.62 93.38
  C 117.64 93.79 117.32 94.13 116.91 94.14
  L 111.57 94.30
  C 111.02 94.32 110.57 93.86 110.60 93.31
  Q 111.60 78.03 110.52 62.75
  C 110.45 61.79 111.13 60.95 112.08 60.81
  L 116.27 60.20
  Z"
/>
<path fill="#000000" d="
  M 145.69 82.65
  Q 145.82 70.47 145.32 63.19
  C 145.09 59.85 148.94 59.95 151.11 60.37
  Q 151.62 60.47 151.59 60.99
  Q 150.62 76.68 151.40 92.39
  Q 151.43 92.85 150.98 92.97
  L 146.81 94.14
  C 146.06 94.35 145.27 94.04 144.87 93.38
  L 131.70 72.03
  C 131.50 71.71 131.00 71.86 131.01 72.24
  L 131.53 93.17
  C 131.54 93.70 131.11 94.13 130.58 94.13
  L 126.25 94.12
  Q 125.42 94.12 125.47 93.29
  Q 126.35 77.35 125.25 61.40
  C 125.21 60.79 125.68 60.27 126.29 60.24
  L 130.98 60.00
  C 131.25 59.99 131.51 60.13 131.65 60.36
  L 145.28 82.76
  Q 145.68 83.42 145.69 82.65
  Z"
/>
</svg>
